<!-- Generated by IcoMoon.io -->
<svg version="1.1" xmlns="http://www.w3.org/2000/svg" width="37" height="32" viewBox="0 0 37 32">
<title>archive-2nd</title>
<path fill="#03c3e2" d="M36.994 5.457v24.971c0 0.766-0.848 1.572-1.87 1.572h-33.295c-1.022 0-1.83-0.806-1.83-1.572v-24.971c0-0.068 0.009-0.133 0.021-0.196-0.013-0.1-0.021-0.201-0.021-0.303v-2.59c0-1.424 1.269-2.368 2.693-2.368h11.53l4.287 4.254h16.614c1.022 0 1.87 0.436 1.87 1.202zM33.881 23.421c-0.289-0.116-0.582-0.174-0.879-0.174-0.446 0-0.849 0.093-1.212 0.279-0.343 0.186-0.627 0.477-0.858 0.873-0.132-0.33-0.322-0.6-0.577-0.811-0.318-0.227-0.726-0.34-1.242-0.34-0.545 0-0.961 0.132-1.303 0.396-0.194 0.149-0.618 0.488-0.618 0.897v0.001c-0.185-0.317-0.314-0.57-0.543-0.759-0.442-0.365-1.040-0.548-1.735-0.548-0.555 0-1.003 0.136-1.365 0.408-0.202 0.153-0.427 0.403-0.612 0.749v-1.271h-1.85v7.029h1.85v-3.659c0-0.417 0.062-0.759 0.176-1.028 0.221-0.508 0.636-0.761 1.23-0.761 0.483 0 0.832 0.173 1.004 0.52 0.094 0.189 0.179 0.462 0.179 0.817v4.111h1.665v-4.55c0-0.002 0.034-0.004 0.034-0.006 0.024-0.136 0.089-0.249 0.136-0.341 0.173-0.327 0.517-0.489 1.020-0.489 0.434 0 0.738 0.163 0.887 0.489 0.082 0.181 0.143 0.473 0.143 0.873v4.024h1.665v-4.024c0-0.301 0.083-0.56 0.178-0.774 0.186-0.405 0.56-0.607 1.048-0.607 0.421 0 0.713 0.157 0.87 0.47 0.083 0.165 0.124 0.376 0.124 0.631v4.303h1.805l0.012-4.256c0-0.437-0.021-0.788-0.062-1.015-0.066-0.343-0.194-0.624-0.384-0.859-0.235-0.289-0.496-0.483-0.785-0.599z"></path>
</svg>
